<?xml version="1.0" encoding="UTF-8" standalone="no"?>
<!-- Created with Inkscape (http://www.inkscape.org/) -->

<svg
   width="150"
   height="50"
   version="1.1"
   viewBox="0 0 150 50"
   id="svg21"
   sodipodi:docname="sophy-logo-dark.svg"
   inkscape:export-filename="sophy-light.png"
   inkscape:export-xdpi="192"
   inkscape:export-ydpi="192"
   inkscape:version="1.4 (e7c3feb1, 2024-10-09)"
   xmlns:inkscape="http://www.inkscape.org/namespaces/inkscape"
   xmlns:sodipodi="http://sodipodi.sourceforge.net/DTD/sodipodi-0.dtd"
   xmlns="http://www.w3.org/2000/svg"
   xmlns:svg="http://www.w3.org/2000/svg">
  <sodipodi:namedview
     id="namedview21"
     pagecolor="#ffffff"
     bordercolor="#000000"
     borderopacity="0.25"
     inkscape:showpageshadow="2"
     inkscape:pageopacity="0.0"
     inkscape:pagecheckerboard="0"
     inkscape:deskcolor="#d1d1d1"
     inkscape:zoom="3.2258438"
     inkscape:cx="80.754066"
     inkscape:cy="13.019849"
     inkscape:window-width="1536"
     inkscape:window-height="807"
     inkscape:window-x="0"
     inkscape:window-y="44"
     inkscape:window-maximized="0"
     inkscape:current-layer="g19" />
  <defs
     id="defs9">
    <clipPath
       id="clipPath2">
      <path
         transform="translate(-470.97 -532.47)"
         d="m0 2160h2160v-2160h-2160z"
         id="path1" />
    </clipPath>
    <clipPath
       id="clipPath4">
      <path
         transform="translate(-789.74 -561.99)"
         d="m0 2160h2160v-2160h-2160z"
         id="path2" />
    </clipPath>
    <clipPath
       id="clipPath6">
      <path
         transform="translate(-1128 -562.49)"
         d="m0 2160h2160v-2160h-2160z"
         id="path3" />
    </clipPath>
    <clipPath
       id="clipPath8">
      <path
         transform="translate(-1331.7 -553.49)"
         d="m0 2160h2160v-2160h-2160z"
         id="path4" />
    </clipPath>
    <clipPath
       id="clipPath10">
      <path
         transform="translate(-1613.9 -428.38)"
         d="m0 2160h2160v-2160h-2160z"
         id="path5" />
    </clipPath>
    <clipPath
       id="clipPath12">
      <path
         transform="translate(-1282 -1324.6)"
         d="m0 2160h2160v-2160h-2160z"
         id="path6" />
    </clipPath>
    <clipPath
       id="clipPath14">
      <path
         transform="translate(-878.01 -1527.8)"
         d="m0 2160h2160v-2160h-2160z"
         id="path7" />
    </clipPath>
    <clipPath
       id="clipPath16">
      <path
         transform="translate(-1081.5 -1324.3)"
         d="m0 2160h2160v-2160h-2160z"
         id="path8" />
    </clipPath>
    <clipPath
       id="clipPath18">
      <path
         transform="translate(-1485.5 -1528.1)"
         d="m0 2160h2160v-2160h-2160z"
         id="path9" />
    </clipPath>
  </defs>
  <path
     style="fill:#eeeeee;fill-opacity:1;stroke-width:0.483199"
     d="M 40.724353,7.7868089 28.21843,7.6470777 c 0,0 -10.689419,2.3754273 -10.619554,11.3880753 0.06987,9.012647 7.266011,12.016864 11.527806,12.016864 -8.104396,0 -11.946999,8.523589 -11.527805,11.597671 3.143946,0.209596 12.296325,0.209596 12.296325,0.209596 0,0 10.68942,-1.467175 10.759286,-11.527806 C 40.724348,21.270849 31.292512,19.174883 29.126682,19.38448 34.156998,19.45434 40.794219,15.472013 40.724353,7.7868089 Z"
     id="path3-6" />
  <g
     transform="translate(63.448 -436.2)"
     id="g21">
    <g
       transform="matrix(.043049 0 0 .043049 -96.287 417.51)"
       id="g20">
      <g
         transform="translate(0 46.458)"
         id="g19">
        <g
           transform="translate(1701.7 -1004.5)"
           id="g14"
           style="fill:#000000;fill-opacity:1">
          <path
             transform="matrix(1.3333 0 0 -1.3333 627.95 2170)"
             d="m0 0c-23.692 0-44.961 4.504-63.805 13.512-18.853 9.008-34.53 20.845-47.041 35.53-8.611 10.102-15.526 20.76-20.739 31.971-3.8 8.173 0.262 17.85 8.737 20.918l0.492 0.178c7.435 2.692 15.739-0.675 19.109-7.828 9.027-19.162 21.177-34.243 36.439-45.239 18.516-13.348 40.613-20.018 66.308-20.018 17.014 0 31.941 2.831 44.788 8.508 12.84 5.669 22.934 13.676 30.277 24.021 7.334 10.337 11.009 22.519 11.009 36.531 0 19.346-5.426 34.358-16.264 45.039-10.845 10.674-24.943 18.345-42.287 23.021l-68.059 20.017c-27.695 8.007-48.127 20.932-61.303 38.783-13.183 17.844-19.767 38.112-19.767 60.803 0 19.681 4.754 36.946 14.263 51.795 9.508 14.841 22.433 26.437 38.783 34.78 16.342 8.335 34.858 12.511 55.548 12.511 21.683 0 41.114-4.09 58.301-12.261 17.179-8.178 31.691-18.852 43.538-32.028 7.895-8.792 14.274-18.211 19.132-28.26 3.923-8.114-0.155-17.846-8.612-20.962-7.447-2.744-15.722 0.649-19.185 7.79-8.129 16.759-19.171 29.901-33.122 39.431-17.351 11.838-37.204 17.765-59.551 17.765-14.685 0-27.86-2.838-39.535-8.507-11.682-5.677-20.854-13.684-27.523-24.021-6.678-10.345-10.009-22.519-10.009-36.532 0-17.015 4.832-31.527 14.513-43.537 9.672-12.011 25.85-21.52 48.542-28.525l61.052-18.016c26.688-8.007 47.291-20.268 61.804-36.781 14.513-16.515 21.769-36.783 21.769-60.803 0-19.69-5.004-36.954-15.013-51.795-10.009-14.849-23.943-26.522-41.786-35.03-17.852-8.508-38.119-12.761-60.803-12.761"
             clip-path="url(#clipPath2)"
             id="path10"
             style="fill:#000000;fill-opacity:1" />
          <path
             transform="matrix(1.3333 0 0 -1.3333 1053 2130.7)"
             d="m0 0c19.016 0 36.281 4.754 51.795 14.262 15.513 9.509 27.774 22.597 36.782 39.284 9.007 16.679 13.511 35.358 13.511 56.049 0 20.681-4.504 39.198-13.511 55.548-9.008 16.342-21.191 29.353-36.532 39.034-15.349 9.672-32.7 14.512-52.045 14.512-19.353 0-36.782-4.754-52.295-14.262-15.514-9.509-27.774-22.52-36.782-39.034s-13.512-35.117-13.512-55.798c0-20.691 4.582-39.37 13.762-56.049 9.172-16.687 21.433-29.775 36.782-39.284 15.341-9.508 32.692-14.262 52.045-14.262m0-29.525c-25.358 0-48.214 6.004-68.559 18.015-20.354 12.01-36.454 28.603-48.292 49.793-11.846 21.182-17.765 44.952-17.765 71.312 0 26.35 5.919 50.043 17.765 71.061 11.838 21.018 27.852 37.532 48.041 49.543 20.182 12.01 43.116 18.016 68.81 18.016 25.35 0 48.206-6.006 68.559-18.016 20.346-12.011 36.36-28.446 48.042-49.293 11.674-20.853 17.515-44.625 17.515-71.311 0-26.696-6.005-50.544-18.015-71.563-12.011-21.017-28.111-37.532-48.292-49.542-20.19-12.011-42.787-18.015-67.809-18.015"
             clip-path="url(#clipPath4)"
             id="path11"
             style="fill:#000000;fill-opacity:1" />
          <path
             transform="matrix(1.3333 0 0 -1.3333 1504 2130)"
             d="m0 0c19.016 0 36.031 4.755 51.044 14.263s26.852 22.519 35.531 39.033c8.672 16.515 13.011 35.108 13.011 55.799 0 20.681-4.339 39.198-13.011 55.548-8.679 16.342-20.518 29.275-35.531 38.783-15.013 9.509-32.028 14.262-51.044 14.262-19.017 0-36.203-4.753-51.545-14.262-15.349-9.508-27.523-22.441-36.531-38.783-9.008-16.35-13.512-34.867-13.512-55.548 0-20.691 4.504-39.284 13.512-55.799 9.008-16.514 21.096-29.525 36.281-39.033 15.177-9.508 32.442-14.263 51.795-14.263m-132.12-109.09v335.79c0 8.291 6.722 15.013 15.014 15.013 8.291 0 15.013-6.722 15.013-15.013v-52.045l-5.005 9.508c10.009 19.346 24.436 34.78 43.288 46.29 18.844 11.511 40.449 17.266 64.806 17.266 25.021 0 47.369-6.006 67.058-18.016 19.681-12.011 35.194-28.525 46.54-49.543 11.338-21.018 17.015-44.875 17.015-71.562 0-26.023-5.677-49.543-17.015-70.561-11.346-21.018-26.859-37.618-46.54-49.793-19.689-12.182-42.037-18.265-67.058-18.265-24.357 0-46.126 5.926-65.307 17.764-19.188 11.839-33.451 28.103-42.787 48.792l5.005 7.007v-152.63c0-8.292-6.722-15.013-15.013-15.013-8.292 0-15.014 6.721-15.014 15.013"
             clip-path="url(#clipPath6)"
             id="path12"
             style="fill:#000000;fill-opacity:1" />
          <path
             transform="matrix(1.3333 0 0 -1.3333 1775.6 2142)"
             d="m0 0v348.8c0 8.292 6.722 15.013 15.013 15.013 8.292 0 15.013-6.721 15.013-15.013v-151.63l-7.506 2.001c6.005 17.679 16.764 31.692 32.278 42.037 15.513 10.337 33.607 15.513 54.296 15.513 18.344 0 35.031-4.175 50.044-12.51 15.013-8.344 27.023-19.94 36.031-34.781 9.008-14.848 13.512-31.777 13.512-50.794v-158.64c0-8.292-6.722-15.013-15.013-15.013-8.292 0-15.013 6.721-15.013 15.013v150.13c0 16.013-3.253 29.776-9.759 41.286-6.505 11.509-15.349 20.345-26.523 26.522-11.181 6.17-23.77 9.259-37.782 9.259-15.013 0-28.111-3.504-39.284-10.51-11.182-7.006-19.853-16.686-26.023-29.025-6.177-12.346-9.258-26.523-9.258-42.536v-145.13c0-8.292-6.721-15.013-15.013-15.013-8.291 0-15.013 6.721-15.013 15.013"
             clip-path="url(#clipPath8)"
             id="path13"
             style="fill:#000000;fill-opacity:1" />
          <path
             transform="matrix(1.3333 0 0 -1.3333 2151.9 2308.8)"
             d="m0 0c-4.676 0-9.759 0.423-15.263 1.251-0.377 0.057-0.752 0.116-1.127 0.178-8.443 1.379-14.637 8.685-14.637 17.241 0 7.236 6.362 12.822 13.537 11.886l0.225-0.03c5.169-0.664 9.923-1 14.262-1 16.343 0.336 29.19 4.339 38.534 12.01 9.336 7.679 17.843 20.354 25.522 38.033l19.016 44.538v-28.023l-104.13 258.71c-4.05 10.061 3.357 21.027 14.203 21.027 6.258 0 11.887-3.809 14.213-9.619l92.732-231.59h-12.01l93.18 231.51c2.359 5.86 8.042 9.699 14.359 9.699 11.007 0 18.497-11.165 14.322-21.349l-115.36-281.41c-4.676-11.009-10.845-22.183-18.516-33.529-7.678-11.338-17.437-20.767-29.275-28.274-11.846-7.506-26.445-11.26-43.788-11.26"
             clip-path="url(#clipPath10)"
             id="path14"
             style="fill:#000000;fill-opacity:1" />
        </g>
        <g
           stroke="#000"
           stroke-miterlimit="10"
           stroke-width="31"
           id="g18">
          <path
             transform="matrix(1.3333 0 0 -1.3333 1709.3 1113.8)"
             d="m0 0c0-112.57-91.255-203.82-203.82-203.82h-200.15"
             clip-path="url(#clipPath12)"
             fill="none"
             id="path15" />
          <path
             transform="matrix(1.3333 0 0 -1.3333 1170.7 842.93)"
             d="m0 0c0 112.57 91.255 203.82 203.82 203.82h200.14"
             clip-path="url(#clipPath14)"
             fill="none"
             id="path16" />
          <path
             transform="matrix(1.3333 0 0 -1.3333 1442 1114.2)"
             d="m0 0c-112.4 0-203.51-91.117-203.51-203.51 0 112.4-91.117 203.51-203.49 203.51 112.37 0 203.49 91.092 203.49 203.49 0-112.4 91.117-203.49 203.51-203.49z"
             clip-path="url(#clipPath16)"
             fill="#21ffcb"
             stroke-linecap="square"
             stroke-linejoin="round"
             id="path17" />
          <path
             transform="matrix(1.3333 0 0 -1.3333 1980.6 842.49)"
             d="m0 0c-112.4 0-203.51-91.117-203.51-203.51 0 112.4-91.117 203.51-203.49 203.51 112.37 0 203.49 91.092 203.49 203.49 0-112.4 91.117-203.49 203.51-203.49z"
             clip-path="url(#clipPath18)"
             fill="#00acff"
             stroke-linecap="square"
             stroke-linejoin="round"
             id="path18" />
        </g>
      </g>
    </g>
  </g>
</svg>
